ply
format ascii 1.0
comment created by gply, a Houdini tool.
comment converted from .[b]geo
comment for more information about Houdini, try:
comment www.sidefx.com
element vertex 656
property float x
property float y
property float z
property float nx
property float ny
property float nz
element face 1020
property list uchar int vertex_indices
end_header
10 -0.200000003 10 0 -1 0 
8.66666698 -0.200000003 10 -0 -1 -0 
7.33333302 -0.200000003 10 -0 -1 -0 
6 -0.200000003 10 -0 -1 -0 
4.66666651 -0.200000003 10 -0 -1 -0 
3.33333302 -0.200000003 10 -0 -1 -0 
2 -0.200000003 10 -0 -1 -0 
0.666666031 -0.200000003 10 -0 -1 -0 
-0.666666985 -0.200000003 10 -0 -1 -0 
-2 -0.200000003 10 -0 -1 -0 
-3.33333397 -0.200000003 10 -0 -1 -0 
-4.66666698 -0.200000003 10 -0 -1 -0 
-6 -0.200000003 10 -0 -1 -0 
-7.33333397 -0.200000003 10 -0 -1 -0 
-8.66666794 -0.200000003 10 -0 -1 -0 
-10 -0.200000003 10 -1 0 0 
10 0.200000003 10 0 -0 1 
8.66666698 0.200000003 10 -0 1 0 
7.33333302 0.200000003 10 -0 1 0 
6 0.200000003 10 -0 1 0 
4.66666651 0.200000003 10 0 0.99999994 -0 
3.33333302 0.200000003 10 -0 1 0 
2 0.200000003 10 -0 1 0 
0.666666031 0.200000003 10 -0 1 0 
-0.666666985 0.200000003 10 -0 1 0 
-2 0.200000003 10 -0 1 0 
-3.33333397 0.200000003 10 -0 1 0 
-4.66666698 0.200000003 10 0 1 -0 
-6 0.200000003 10 -0 1 0 
-7.33333397 0.200000003 10 -0 1 0 
-8.66666794 0.200000003 10 -0 1 0 
-10 0.200000003 10 0 1 0 
-10 -0.200000003 -10 -1 0 0 
-8.66666698 -0.200000003 -10 0 -1 0 
-7.33333302 -0.200000003 -10 0 -1 0 
-6 -0.200000003 -10 0 -1 0 
-4.66666651 -0.200000003 -10 0 -0.99999994 0 
-3.33333302 -0.200000003 -10 0 -1 0 
-2 -0.200000003 -10 0 -1 0 
-0.666666031 -0.200000003 -10 0 -1 0 
0.666666985 -0.200000003 -10 0 -1 0 
2 -0.200000003 -10 0 -1 0 
3.33333397 -0.200000003 -10 0 -1 0 
4.66666698 -0.200000003 -10 0 -1 0 
6 -0.200000003 -10 0 -1 0 
7.33333397 -0.200000003 -10 0 -1 0 
8.66666794 -0.200000003 -10 0 -1 0 
10 -0.200000003 -10 1 -0 0 
-10 0.200000003 -10 0 0 -1 
-8.66666698 0.200000003 -10 0 1 -0 
-7.33333302 0.200000003 -10 0 1 -0 
-6 0.200000003 -10 0 1 -0 
-4.66666651 0.200000003 -10 0 1 -0 
-3.33333302 0.200000003 -10 0 1 -0 
-2 0.200000003 -10 0 1 -0 
-0.666666031 0.200000003 -10 0 1 -0 
0.666666985 0.200000003 -10 0 1 -0 
2 0.200000003 -10 0 1 -0 
3.33333397 0.200000003 -10 0 1 -0 
4.66666698 0.200000003 -10 0 1 -0 
6 0.200000003 -10 0 1 -0 
7.33333397 0.200000003 -10 0 1 -0 
8.66666794 0.200000003 -10 0 1 -0 
10 0.200000003 -10 1 0 0 
-10 0.200000003 -8.66666698 -1 -0 -0 
-8.66666698 0.200000003 -8.66666698 -0 1 0 
-7.33333302 0.200000003 -8.66666698 -0 1 0 
-6 0.200000003 -8.66666698 -0 1 0 
-4.66666651 0.200000003 -8.66666698 -0 1 0 
-3.33333302 0.200000003 -8.66666698 -0 1 0 
-2 0.200000003 -8.66666698 -0 1 0 
-0.666666031 0.200000003 -8.66666698 -0 1 0 
0.666666985 0.200000003 -8.66666698 -0 1 0 
2 0.200000003 -8.66666698 -0 1 0 
3.33333397 0.200000003 -8.66666698 -0 1 0 
4.66666698 0.200000003 -8.66666698 -0 1 0 
6 0.200000003 -8.66666698 -0 1 0 
7.33333397 0.200000003 -8.66666698 -0 1 0 
8.66666794 0.200000003 -8.66666698 -0 1 0 
10 0.200000003 -8.66666698 1 0 -0 
-10 0.200000003 -7.33333302 -1 -0 -0 
-8.66666698 0.200000003 -7.33333302 -0 1 0 
-7.33333302 0.200000003 -7.33333302 -0 1 0 
-6 0.200000003 -7.33333302 -0 1 0 
-4.66666651 0.200000003 -7.33333302 -0 1 0 
-3.33333302 0.200000003 -7.33333302 -0 1 0 
-2 0.200000003 -7.33333302 -0 1 0 
-0.666666031 0.200000003 -7.33333302 -0 1 0 
0.666666985 0.200000003 -7.33333302 -0 1 0 
2 0.200000003 -7.33333302 -0 1 0 
3.33333397 0.200000003 -7.33333302 -0 1 0 
4.66666698 0.200000003 -7.33333302 -0 1 0 
6 0.200000003 -7.33333302 -0 1 0 
7.33333397 0.200000003 -7.33333302 -0 1 0 
8.66666794 0.200000003 -7.33333302 -0 1 0 
10 0.200000003 -7.33333302 1 0 -0 
-10 0.200000003 -6 -1 -0 -0 
-8.66666698 0.200000003 -6 -0 1 0 
-7.33333302 0.200000003 -6 -0 1 0 
-6 0.200000003 -6 -0 1 0 
-4.66666651 0.200000003 -6 -0 1 0 
-3.33333302 0.200000003 -6 -0 1 0 
-2 0.200000003 -6 -0 1 0 
-0.666666031 0.200000003 -6 -0 1 0 
0.666666985 0.200000003 -6 -0 1 0 
2 0.200000003 -6 -0 1 0 
3.33333397 0.200000003 -6 -0 1 0 
4.66666698 0.200000003 -6 -0 1 0 
6 0.200000003 -6 -0 1 0 
7.33333397 0.200000003 -6 -0 1 0 
8.66666794 0.200000003 -6 -0 1 0 
10 0.200000003 -6 1 0 -0 
-10 0.200000003 -4.66666651 -1 -0 -0 
-8.66666698 0.200000003 -4.66666651 -0 1 0 
-7.33333302 0.200000003 -4.66666651 -0 1 0 
-6 0.200000003 -4.66666651 -0 1 0 
-4.66666651 0.200000003 -4.66666651 -0 1 0 
-3.33333302 0.200000003 -4.66666651 -0 1 0 
-2 0.200000003 -4.66666651 -0 1 0 
-0.666666031 0.200000003 -4.66666651 -0 1 0 
0.666666985 0.200000003 -4.66666651 -0 1 0 
2 0.200000003 -4.66666651 -0 1 0 
3.33333397 0.200000003 -4.66666651 -0 1 0 
4.66666698 0.200000003 -4.66666651 -0 1 0 
6 0.200000003 -4.66666651 -0 1 0 
7.33333397 0.200000003 -4.66666651 -0 1 0 
8.66666794 0.200000003 -4.66666651 -0 1 0 
10 0.200000003 -4.66666651 1 0 -0 
-10 0.200000003 -3.33333325 -1 -0 -0 
-8.66666698 0.200000003 -3.33333325 -0 1 0 
-7.33333302 0.200000003 -3.33333325 -0 1 0 
-6 0.200000003 -3.33333325 -0 1 0 
-4.66666651 0.200000003 -3.33333325 -0 1 0 
-3.33333302 0.200000003 -3.33333325 -0 1 0 
-2 0.200000003 -3.33333325 -0 1 0 
-0.666666031 0.200000003 -3.33333325 -0 1 0 
0.666666985 0.200000003 -3.33333325 -0 1 0 
2 0.200000003 -3.33333325 -0 1 0 
3.33333397 0.200000003 -3.33333325 -0 1 0 
4.66666698 0.200000003 -3.33333325 -0 1 0 
6 0.200000003 -3.33333325 -0 1 0 
7.33333397 0.200000003 -3.33333325 -0 1 0 
8.66666794 0.200000003 -3.33333325 -0 1 0 
10 0.200000003 -3.33333325 1 0 -0 
-10 0.200000003 -2.00000024 -1 -0 -0 
-8.66666698 0.200000003 -2.00000024 -0 1 0 
-7.33333302 0.200000003 -2.00000024 -0 1 0 
-6 0.200000003 -2.00000024 -0 1 0 
-4.66666651 0.200000003 -2.00000024 -0 1 0 
-3.33333302 0.200000003 -2.00000024 -0 1 0 
-2 0.200000003 -2.00000024 -0 1 0 
-0.666666031 0.200000003 -2.00000024 -0 1 0 
0.666666985 0.200000003 -2.00000024 -0 1 0 
2 0.200000003 -2.00000024 -0 1 0 
3.33333397 0.200000003 -2.00000024 -0 1 0 
4.66666698 0.200000003 -2.00000024 -0 1 0 
6 0.200000003 -2.00000024 -0 1 0 
7.33333397 0.200000003 -2.00000024 -0 1 0 
8.66666794 0.200000003 -2.00000024 -0 1 0 
10 0.200000003 -2.00000024 1 0 -0 
-10 0.200000003 -0.66666621 -0.99999994 0 0 
-8.66666698 0.200000003 -0.66666621 -0 1 0 
-7.33333302 0.200000003 -0.66666621 -0 1 0 
-6 0.200000003 -0.66666621 -0 1 0 
-4.66666651 0.200000003 -0.66666621 -0 1 0 
-3.33333302 0.200000003 -0.66666621 -0 1 0 
-2 0.200000003 -0.66666621 -0 1 0 
-0.666666031 0.200000003 -0.66666621 -0 1 0 
0.666666985 0.200000003 -0.66666621 -0 1 0 
2 0.200000003 -0.66666621 -0 1 0 
3.33333397 0.200000003 -0.66666621 -0 1 0 
4.66666698 0.200000003 -0.66666621 -0 1 0 
6 0.200000003 -0.66666621 -0 1 0 
7.33333397 0.200000003 -0.66666621 -0 1 0 
8.66666794 0.200000003 -0.66666621 -0 1 0 
10 0.200000003 -0.66666621 1 -0 0 
-10 0.200000003 0.666666806 -0.99999994 0 0 
-8.66666698 0.200000003 0.666666806 -0 1 0 
-7.33333302 0.200000003 0.666666806 -0 1 0 
-6 0.200000003 0.666666806 -0 1 0 
-4.66666651 0.200000003 0.666666806 -0 1 0 
-3.33333302 0.200000003 0.666666806 -0 1 0 
-2 0.200000003 0.666666806 -0 1 0 
-0.666666031 0.200000003 0.666666806 -0 1 0 
0.666666985 0.200000003 0.666666806 -0 1 0 
2 0.200000003 0.666666806 -0 1 0 
3.33333397 0.200000003 0.666666806 -0 1 0 
4.66666698 0.200000003 0.666666806 -0 1 0 
6 0.200000003 0.666666806 -0 1 0 
7.33333397 0.200000003 0.666666806 -0 1 0 
8.66666794 0.200000003 0.666666806 -0 1 0 
10 0.200000003 0.666666806 1 -0 0 
-10 0.200000003 1.99999976 -1 -0 -0 
-8.66666698 0.200000003 1.99999976 -0 1 0 
-7.33333302 0.200000003 1.99999976 -0 1 0 
-6 0.200000003 1.99999976 -0 1 0 
-4.66666651 0.200000003 1.99999976 -0 1 0 
-3.33333302 0.200000003 1.99999976 -0 1 0 
-2 0.200000003 1.99999976 -0 1 0 
-0.666666031 0.200000003 1.99999976 -0 1 0 
0.666666985 0.200000003 1.99999976 -0 1 0 
2 0.200000003 1.99999976 -0 1 0 
3.33333397 0.200000003 1.99999976 -0 1 0 
4.66666698 0.200000003 1.99999976 -0 1 0 
6 0.200000003 1.99999976 -0 1 0 
7.33333397 0.200000003 1.99999976 -0 1 0 
8.66666794 0.200000003 1.99999976 -0 1 0 
10 0.200000003 1.99999976 1 0 -0 
-10 0.200000003 3.33333373 -1 -0 -0 
-8.66666698 0.200000003 3.33333373 -0 1 0 
-7.33333302 0.200000003 3.33333373 -0 1 0 
-6 0.200000003 3.33333373 -0 1 0 
-4.66666651 0.200000003 3.33333373 -0 1 0 
-3.33333302 0.200000003 3.33333373 -0 1 0 
-2 0.200000003 3.33333373 -0 1 0 
-0.666666031 0.200000003 3.33333373 -0 1 0 
0.666666985 0.200000003 3.33333373 -0 1 0 
2 0.200000003 3.33333373 -0 1 0 
3.33333397 0.200000003 3.33333373 -0 1 0 
4.66666698 0.200000003 3.33333373 -0 1 0 
6 0.200000003 3.33333373 -0 1 0 
7.33333397 0.200000003 3.33333373 -0 1 0 
8.66666794 0.200000003 3.33333373 -0 1 0 
10 0.200000003 3.33333373 1 0 -0 
-10 0.200000003 4.66666698 -1 -0 -0 
-8.66666698 0.200000003 4.66666698 -0 1 0 
-7.33333302 0.200000003 4.66666698 -0 1 0 
-6 0.200000003 4.66666698 -0 1 0 
-4.66666651 0.200000003 4.66666698 -0 1 0 
-3.33333302 0.200000003 4.66666698 -0 1 0 
-2 0.200000003 4.66666698 -0 1 0 
-0.666666031 0.200000003 4.66666698 -0 1 0 
0.666666985 0.200000003 4.66666698 -0 1 0 
2 0.200000003 4.66666698 -0 1 0 
3.33333397 0.200000003 4.66666698 -0 1 0 
4.66666698 0.200000003 4.66666698 -0 1 0 
6 0.200000003 4.66666698 -0 1 0 
7.33333397 0.200000003 4.66666698 -0 1 0 
8.66666794 0.200000003 4.66666698 -0 1 0 
10 0.200000003 4.66666698 1 0 -0 
-10 0.200000003 6 -1 -0 -0 
-8.66666698 0.200000003 6 -0 1 0 
-7.33333302 0.200000003 6 -0 1 0 
-6 0.200000003 6 -0 1 0 
-4.66666651 0.200000003 6 -0 1 0 
-3.33333302 0.200000003 6 -0 1 0 
-2 0.200000003 6 -0 1 0 
-0.666666031 0.200000003 6 -0 1 0 
0.666666985 0.200000003 6 -0 1 0 
2 0.200000003 6 -0 1 0 
3.33333397 0.200000003 6 -0 1 0 
4.66666698 0.200000003 6 -0 1 0 
6 0.200000003 6 -0 1 0 
7.33333397 0.200000003 6 -0 1 0 
8.66666794 0.200000003 6 -0 1 0 
10 0.200000003 6 1 0 -0 
-10 0.200000003 7.33333397 -1 -0 -0 
-8.66666698 0.200000003 7.33333397 -0 1 0 
-7.33333302 0.200000003 7.33333397 -0 1 0 
-6 0.200000003 7.33333397 -0 1 0 
-4.66666651 0.200000003 7.33333397 -0 1 0 
-3.33333302 0.200000003 7.33333397 -0 1 0 
-2 0.200000003 7.33333397 -0 1 0 
-0.666666031 0.200000003 7.33333397 -0 1 0 
0.666666985 0.200000003 7.33333397 -0 1 0 
2 0.200000003 7.33333397 -0 1 0 
3.33333397 0.200000003 7.33333397 -0 1 0 
4.66666698 0.200000003 7.33333397 -0 1 0 
6 0.200000003 7.33333397 -0 1 0 
7.33333397 0.200000003 7.33333397 -0 1 0 
8.66666794 0.200000003 7.33333397 -0 1 0 
10 0.200000003 7.33333397 1 0 -0 
-10 0.200000003 8.66666794 -1 -0 -0 
-8.66666698 0.200000003 8.66666794 -0 1 0 
-7.33333302 0.200000003 8.66666794 -0 1 0 
-6 0.200000003 8.66666794 -0 1 0 
-4.66666651 0.200000003 8.66666794 0 0.99999994 0 
-3.33333302 0.200000003 8.66666794 -0 1 0 
-2 0.200000003 8.66666794 -0 1 0 
-0.666666031 0.200000003 8.66666794 -0 1 0 
0.666666985 0.200000003 8.66666794 -0 1 0 
2 0.200000003 8.66666794 -0 1 0 
3.33333397 0.200000003 8.66666794 -0 1 0 
4.66666698 0.200000003 8.66666794 0 0.99999994 0 
6 0.200000003 8.66666794 -0 1 0 
7.33333397 0.200000003 8.66666794 -0 1 0 
8.66666794 0.200000003 8.66666794 -0 1 0 
10 0.200000003 8.66666794 1 0 -0 
10 -0.200000003 -8.66666698 1 -0 0 
8.66666698 -0.200000003 -8.66666698 -0 -1 -0 
7.33333302 -0.200000003 -8.66666698 -0 -1 -0 
6 -0.200000003 -8.66666698 -0 -1 -0 
4.66666651 -0.200000003 -8.66666698 0 -1 0 
3.33333302 -0.200000003 -8.66666698 -0 -1 -0 
2 -0.200000003 -8.66666698 -0 -1 -0 
0.666666031 -0.200000003 -8.66666698 -0 -1 -0 
-0.666666985 -0.200000003 -8.66666698 -0 -1 -0 
-2 -0.200000003 -8.66666698 -0 -1 -0 
-3.33333397 -0.200000003 -8.66666698 -0 -1 -0 
-4.66666698 -0.200000003 -8.66666698 0 -0.99999994 0 
-6 -0.200000003 -8.66666698 -0 -1 -0 
-7.33333397 -0.200000003 -8.66666698 -0 -1 -0 
-8.66666794 -0.200000003 -8.66666698 -0 -1 -0 
-10 -0.200000003 -8.66666698 -1 0 0 
10 -0.200000003 -7.33333302 1 -0 0 
8.66666698 -0.200000003 -7.33333302 -0 -1 -0 
7.33333302 -0.200000003 -7.33333302 -0 -1 -0 
6 -0.200000003 -7.33333302 -0 -1 -0 
4.66666651 -0.200000003 -7.33333302 -0 -1 -0 
3.33333302 -0.200000003 -7.33333302 -0 -1 -0 
2 -0.200000003 -7.33333302 -0 -1 -0 
0.666666031 -0.200000003 -7.33333302 -0 -1 -0 
-0.666666985 -0.200000003 -7.33333302 -0 -1 -0 
-2 -0.200000003 -7.33333302 -0 -1 -0 
-3.33333397 -0.200000003 -7.33333302 -0 -1 -0 
-4.66666698 -0.200000003 -7.33333302 -0 -1 -0 
-6 -0.200000003 -7.33333302 -0 -1 -0 
-7.33333397 -0.200000003 -7.33333302 -0 -1 -0 
-8.66666794 -0.200000003 -7.33333302 -0 -1 -0 
-10 -0.200000003 -7.33333302 -1 0 0 
10 -0.200000003 -6 1 -0 0 
8.66666698 -0.200000003 -6 -0 -1 -0 
7.33333302 -0.200000003 -6 -0 -1 -0 
6 -0.200000003 -6 -0 -1 -0 
4.66666651 -0.200000003 -6 -0 -1 -0 
3.33333302 -0.200000003 -6 -0 -1 -0 
2 -0.200000003 -6 -0 -1 -0 
0.666666031 -0.200000003 -6 -0 -1 -0 
-0.666666985 -0.200000003 -6 -0 -1 -0 
-2 -0.200000003 -6 -0 -1 -0 
-3.33333397 -0.200000003 -6 -0 -1 -0 
-4.66666698 -0.200000003 -6 -0 -1 -0 
-6 -0.200000003 -6 -0 -1 -0 
-7.33333397 -0.200000003 -6 -0 -1 -0 
-8.66666794 -0.200000003 -6 -0 -1 -0 
-10 -0.200000003 -6 -1 0 0 
10 -0.200000003 -4.66666651 1 -0 0 
8.66666698 -0.200000003 -4.66666651 -0 -1 -0 
7.33333302 -0.200000003 -4.66666651 -0 -1 -0 
6 -0.200000003 -4.66666651 -0 -1 -0 
4.66666651 -0.200000003 -4.66666651 -0 -1 -0 
3.33333302 -0.200000003 -4.66666651 -0 -1 -0 
2 -0.200000003 -4.66666651 -0 -1 -0 
0.666666031 -0.200000003 -4.66666651 -0 -1 -0 
-0.666666985 -0.200000003 -4.66666651 -0 -1 -0 
-2 -0.200000003 -4.66666651 -0 -1 -0 
-3.33333397 -0.200000003 -4.66666651 -0 -1 -0 
-4.66666698 -0.200000003 -4.66666651 -0 -1 -0 
-6 -0.200000003 -4.66666651 -0 -1 -0 
-7.33333397 -0.200000003 -4.66666651 -0 -1 -0 
-8.66666794 -0.200000003 -4.66666651 -0 -1 -0 
-10 -0.200000003 -4.66666651 -1 0 0 
10 -0.200000003 -3.33333278 1 0 0 
8.66666698 -0.200000003 -3.33333278 -0 -1 -0 
7.33333302 -0.200000003 -3.33333278 -0 -1 -0 
6 -0.200000003 -3.33333278 -0 -1 -0 
4.66666651 -0.200000003 -3.33333278 -0 -1 -0 
3.33333302 -0.200000003 -3.33333278 -0 -1 -0 
2 -0.200000003 -3.33333278 -0 -1 -0 
0.666666031 -0.200000003 -3.33333278 -0 -1 -0 
-0.666666985 -0.200000003 -3.33333278 -0 -1 -0 
-2 -0.200000003 -3.33333278 -0 -1 -0 
-3.33333397 -0.200000003 -3.33333278 -0 -1 -0 
-4.66666698 -0.200000003 -3.33333278 -0 -1 -0 
-6 -0.200000003 -3.33333278 -0 -1 -0 
-7.33333397 -0.200000003 -3.33333278 -0 -1 -0 
-8.66666794 -0.200000003 -3.33333278 -0 -1 -0 
-10 -0.200000003 -3.33333278 -1 0 0 
10 -0.200000003 -1.99999976 1 0 0 
8.66666698 -0.200000003 -1.99999976 -0 -1 -0 
7.33333302 -0.200000003 -1.99999976 -0 -1 -0 
6 -0.200000003 -1.99999976 -0 -1 -0 
4.66666651 -0.200000003 -1.99999976 -0 -1 -0 
3.33333302 -0.200000003 -1.99999976 -0 -1 -0 
2 -0.200000003 -1.99999976 -0 -1 -0 
0.666666031 -0.200000003 -1.99999976 -0 -1 -0 
-0.666666985 -0.200000003 -1.99999976 -0 -1 -0 
-2 -0.200000003 -1.99999976 -0 -1 -0 
-3.33333397 -0.200000003 -1.99999976 -0 -1 -0 
-4.66666698 -0.200000003 -1.99999976 -0 -1 -0 
-6 -0.200000003 -1.99999976 -0 -1 -0 
-7.33333397 -0.200000003 -1.99999976 -0 -1 -0 
-8.66666794 -0.200000003 -1.99999976 -0 -1 -0 
-10 -0.200000003 -1.99999976 -1 0 0 
10 -0.200000003 -0.666665852 0.99999994 0 0 
8.66666698 -0.200000003 -0.666665852 -0 -1 -0 
7.33333302 -0.200000003 -0.666665852 -0 -1 -0 
6 -0.200000003 -0.666665852 -0 -1 -0 
4.66666651 -0.200000003 -0.666665852 -0 -1 -0 
3.33333302 -0.200000003 -0.666665852 -0 -1 -0 
2 -0.200000003 -0.666665852 -0 -1 -0 
0.666666031 -0.200000003 -0.666665852 -0 -1 -0 
-0.666666985 -0.200000003 -0.666665852 -0 -1 -0 
-2 -0.200000003 -0.666665852 -0 -1 -0 
-3.33333397 -0.200000003 -0.666665852 -0 -1 -0 
-4.66666698 -0.200000003 -0.666665852 -0 -1 -0 
-6 -0.200000003 -0.666665852 -0 -1 -0 
-7.33333397 -0.200000003 -0.666665852 -0 -1 -0 
-8.66666794 -0.200000003 -0.666665852 -0 -1 -0 
-10 -0.200000003 -0.666665852 -1 0 0 
10 -0.200000003 0.666667163 0.99999994 0 0 
8.66666698 -0.200000003 0.666667163 -0 -1 -0 
7.33333302 -0.200000003 0.666667163 -0 -1 -0 
6 -0.200000003 0.666667163 -0 -1 -0 
4.66666651 -0.200000003 0.666667163 -0 -1 -0 
3.33333302 -0.200000003 0.666667163 -0 -1 -0 
2 -0.200000003 0.666667163 -0 -1 -0 
0.666666031 -0.200000003 0.666667163 -0 -1 -0 
-0.666666985 -0.200000003 0.666667163 -0 -1 -0 
-2 -0.200000003 0.666667163 -0 -1 -0 
-3.33333397 -0.200000003 0.666667163 -0 -1 -0 
-4.66666698 -0.200000003 0.666667163 -0 -1 -0 
-6 -0.200000003 0.666667163 -0 -1 -0 
-7.33333397 -0.200000003 0.666667163 -0 -1 -0 
-8.66666794 -0.200000003 0.666667163 -0 -1 -0 
-10 -0.200000003 0.666667163 -1 0 0 
10 -0.200000003 2.00000024 1 0 0 
8.66666698 -0.200000003 2.00000024 -0 -1 -0 
7.33333302 -0.200000003 2.00000024 -0 -1 -0 
6 -0.200000003 2.00000024 -0 -1 -0 
4.66666651 -0.200000003 2.00000024 -0 -1 -0 
3.33333302 -0.200000003 2.00000024 -0 -1 -0 
2 -0.200000003 2.00000024 -0 -1 -0 
0.666666031 -0.200000003 2.00000024 -0 -1 -0 
-0.666666985 -0.200000003 2.00000024 -0 -1 -0 
-2 -0.200000003 2.00000024 -0 -1 -0 
-3.33333397 -0.200000003 2.00000024 -0 -1 -0 
-4.66666698 -0.200000003 2.00000024 -0 -1 -0 
-6 -0.200000003 2.00000024 -0 -1 -0 
-7.33333397 -0.200000003 2.00000024 -0 -1 -0 
-8.66666794 -0.200000003 2.00000024 -0 -1 -0 
-10 -0.200000003 2.00000024 -1 0 0 
10 -0.200000003 3.33333421 1 0 0 
8.66666698 -0.200000003 3.33333421 -0 -1 -0 
7.33333302 -0.200000003 3.33333421 -0 -1 -0 
6 -0.200000003 3.33333421 -0 -1 -0 
4.66666651 -0.200000003 3.33333421 -0 -1 -0 
3.33333302 -0.200000003 3.33333421 -0 -1 -0 
2 -0.200000003 3.33333421 -0 -1 -0 
0.666666031 -0.200000003 3.33333421 -0 -1 -0 
-0.666666985 -0.200000003 3.33333421 -0 -1 -0 
-2 -0.200000003 3.33333421 -0 -1 -0 
-3.33333397 -0.200000003 3.33333421 -0 -1 -0 
-4.66666698 -0.200000003 3.33333421 -0 -1 -0 
-6 -0.200000003 3.33333421 -0 -1 -0 
-7.33333397 -0.200000003 3.33333421 -0 -1 -0 
-8.66666794 -0.200000003 3.33333421 -0 -1 -0 
-10 -0.200000003 3.33333421 -1 0 0 
10 -0.200000003 4.66666698 1 -0 0 
8.66666698 -0.200000003 4.66666698 -0 -1 -0 
7.33333302 -0.200000003 4.66666698 -0 -1 -0 
6 -0.200000003 4.66666698 -0 -1 -0 
4.66666651 -0.200000003 4.66666698 -0 -1 -0 
3.33333302 -0.200000003 4.66666698 -0 -1 -0 
2 -0.200000003 4.66666698 -0 -1 -0 
0.666666031 -0.200000003 4.66666698 -0 -1 -0 
-0.666666985 -0.200000003 4.66666698 -0 -1 -0 
-2 -0.200000003 4.66666698 -0 -1 -0 
-3.33333397 -0.200000003 4.66666698 -0 -1 -0 
-4.66666698 -0.200000003 4.66666698 -0 -1 -0 
-6 -0.200000003 4.66666698 -0 -1 -0 
-7.33333397 -0.200000003 4.66666698 -0 -1 -0 
-8.66666794 -0.200000003 4.66666698 -0 -1 -0 
-10 -0.200000003 4.66666698 -1 0 0 
10 -0.200000003 6 1 -0 0 
8.66666698 -0.200000003 6 -0 -1 -0 
7.33333302 -0.200000003 6 -0 -1 -0 
6 -0.200000003 6 -0 -1 -0 
4.66666651 -0.200000003 6 -0 -1 -0 
3.33333302 -0.200000003 6 -0 -1 -0 
2 -0.200000003 6 -0 -1 -0 
0.666666031 -0.200000003 6 -0 -1 -0 
-0.666666985 -0.200000003 6 -0 -1 -0 
-2 -0.200000003 6 -0 -1 -0 
-3.33333397 -0.200000003 6 -0 -1 -0 
-4.66666698 -0.200000003 6 -0 -1 -0 
-6 -0.200000003 6 -0 -1 -0 
-7.33333397 -0.200000003 6 -0 -1 -0 
-8.66666794 -0.200000003 6 -0 -1 -0 
-10 -0.200000003 6 -1 0 0 
10 -0.200000003 7.33333397 1 -0 0 
8.66666698 -0.200000003 7.33333397 -0 -1 -0 
7.33333302 -0.200000003 7.33333397 -0 -1 -0 
6 -0.200000003 7.33333397 -0 -1 -0 
4.66666651 -0.200000003 7.33333397 -0 -1 -0 
3.33333302 -0.200000003 7.33333397 -0 -1 -0 
2 -0.200000003 7.33333397 -0 -1 -0 
0.666666031 -0.200000003 7.33333397 -0 -1 -0 
-0.666666985 -0.200000003 7.33333397 -0 -1 -0 
-2 -0.200000003 7.33333397 -0 -1 -0 
-3.33333397 -0.200000003 7.33333397 -0 -1 -0 
-4.66666698 -0.200000003 7.33333397 -0 -1 -0 
-6 -0.200000003 7.33333397 -0 -1 -0 
-7.33333397 -0.200000003 7.33333397 -0 -1 -0 
-8.66666794 -0.200000003 7.33333397 -0 -1 -0 
-10 -0.200000003 7.33333397 -1 0 0 
10 -0.200000003 8.66666794 1 -0 0 
8.66666698 -0.200000003 8.66666794 -0 -1 -0 
7.33333302 -0.200000003 8.66666794 -0 -1 -0 
6 -0.200000003 8.66666794 -0 -1 -0 
4.66666651 -0.200000003 8.66666794 -0 -1 -0 
3.33333302 -0.200000003 8.66666794 -0 -1 -0 
2 -0.200000003 8.66666794 -0 -1 -0 
0.666666031 -0.200000003 8.66666794 -0 -1 -0 
-0.666666985 -0.200000003 8.66666794 -0 -1 -0 
-2 -0.200000003 8.66666794 -0 -1 -0 
-3.33333397 -0.200000003 8.66666794 -0 -1 -0 
-4.66666698 -0.200000003 8.66666794 -0 -1 -0 
-6 -0.200000003 8.66666794 -0 -1 -0 
-7.33333397 -0.200000003 8.66666794 -0 -1 -0 
-8.66666794 -0.200000003 8.66666794 -0 -1 -0 
-10 -0.200000003 8.66666794 -1 0 0 
10 -0.200000003 10 0 0 1 
10 -0.200000003 10 1 0 0 
8.66666698 -0.200000003 10 0 0 1 
7.33333302 -0.200000003 10 0 0 1 
6 -0.200000003 10 0 0 1 
4.66666651 -0.200000003 10 0 0 1 
3.33333302 -0.200000003 10 0 0 1 
2 -0.200000003 10 0 0 1 
0.666666031 -0.200000003 10 0 0 1 
-0.666666985 -0.200000003 10 0 0 1 
-2 -0.200000003 10 0 0 1 
-3.33333397 -0.200000003 10 0 0 1 
-4.66666698 -0.200000003 10 0 0 1 
-6 -0.200000003 10 0 0 1 
-7.33333397 -0.200000003 10 0 0 1 
-8.66666794 -0.200000003 10 0 0 1 
-10 -0.200000003 10 -0 0 1 
-10 -0.200000003 10 -0 -1 -0 
10 0.200000003 10 -0 1 0 
10 0.200000003 10 1 0 -0 
8.66666698 0.200000003 10 0 0 1 
7.33333302 0.200000003 10 0 0 1 
6 0.200000003 10 0 0 1 
4.66666651 0.200000003 10 0 0 1 
4.66666651 0.200000003 10 -0 1 0 
3.33333302 0.200000003 10 0 0 1 
2 0.200000003 10 0 0 1 
0.666666031 0.200000003 10 0 0 1 
-0.666666985 0.200000003 10 0 0 1 
-2 0.200000003 10 0 0 1 
-3.33333397 0.200000003 10 0 0 1 
-4.66666698 0.200000003 10 0 0 1 
-4.66666698 0.200000003 10 -0 0.99999994 0 
-6 0.200000003 10 0 0 1 
-7.33333397 0.200000003 10 0 0 1 
-8.66666794 0.200000003 10 0 0 1 
-10 0.200000003 10 0 0 1 
-10 0.200000003 10 -1 0 0 
-10 -0.200000003 -10 0 0 -1 
-10 -0.200000003 -10 0 -1 0 
-8.66666698 -0.200000003 -10 0 0 -1 
-7.33333302 -0.200000003 -10 0 0 -1 
-6 -0.200000003 -10 0 0 -1 
-4.66666651 -0.200000003 -10 0 0 -1 
-4.66666651 -0.200000003 -10 0 -1 0 
-3.33333302 -0.200000003 -10 0 0 -1 
-2 -0.200000003 -10 0 0 -1 
-0.666666031 -0.200000003 -10 0 0 -1 
0.666666985 -0.200000003 -10 0 0 -1 
2 -0.200000003 -10 0 0 -1 
3.33333397 -0.200000003 -10 0 0 -1 
4.66666698 -0.200000003 -10 0 0 -1 
4.66666698 -0.200000003 -10 0 -0.99999994 0 
6 -0.200000003 -10 0 0 -1 
7.33333397 -0.200000003 -10 0 0 -1 
8.66666794 -0.200000003 -10 0 0 -1 
10 -0.200000003 -10 -0 -0 -1 
10 -0.200000003 -10 0 -1 0 
-10 0.200000003 -10 0 1 -0 
-10 0.200000003 -10 -1 -0 -0 
-8.66666698 0.200000003 -10 0 0 -1 
-7.33333302 0.200000003 -10 0 0 -1 
-6 0.200000003 -10 0 0 -1 
-4.66666651 0.200000003 -10 0 0 -1 
-3.33333302 0.200000003 -10 0 0 -1 
-2 0.200000003 -10 0 0 -1 
-0.666666031 0.200000003 -10 0 0 -1 
0.666666985 0.200000003 -10 0 0 -1 
2 0.200000003 -10 0 0 -1 
3.33333397 0.200000003 -10 0 0 -1 
4.66666698 0.200000003 -10 0 0 -1 
6 0.200000003 -10 0 0 -1 
7.33333397 0.200000003 -10 0 0 -1 
8.66666794 0.200000003 -10 0 0 -1 
10 0.200000003 -10 0 0 -1 
10 0.200000003 -10 0 1 0 
-10 0.200000003 -8.66666698 0 1 0 
10 0.200000003 -8.66666698 -0 1 0 
-10 0.200000003 -7.33333302 0 1 0 
10 0.200000003 -7.33333302 -0 1 0 
-10 0.200000003 -6 0 1 0 
10 0.200000003 -6 -0 1 0 
-10 0.200000003 -4.66666651 0 1 0 
10 0.200000003 -4.66666651 -0 1 0 
-10 0.200000003 -3.33333325 0 1 0 
10 0.200000003 -3.33333325 -0 1 0 
-10 0.200000003 -2.00000024 0 1 0 
10 0.200000003 -2.00000024 -0 1 0 
-10 0.200000003 -0.66666621 0 1 0 
-10 0.200000003 -0.66666621 -1 -0 -0 
10 0.200000003 -0.66666621 -0 1 0 
10 0.200000003 -0.66666621 0.99999994 0 -0 
-10 0.200000003 0.666666806 0 1 0 
-10 0.200000003 0.666666806 -1 -0 -0 
10 0.200000003 0.666666806 -0 1 0 
10 0.200000003 0.666666806 0.99999994 0 -0 
-10 0.200000003 1.99999976 0 1 0 
10 0.200000003 1.99999976 -0 1 0 
-10 0.200000003 3.33333373 0 1 0 
10 0.200000003 3.33333373 -0 1 0 
-10 0.200000003 4.66666698 0 1 0 
10 0.200000003 4.66666698 -0 1 0 
-10 0.200000003 6 0 1 0 
10 0.200000003 6 -0 1 0 
-10 0.200000003 7.33333397 0 1 0 
10 0.200000003 7.33333397 -0 1 0 
-10 0.200000003 8.66666794 0 1 0 
-4.66666651 0.200000003 8.66666794 -0 1 0 
4.66666698 0.200000003 8.66666794 -0 1 0 
10 0.200000003 8.66666794 -0 1 0 
10 -0.200000003 -8.66666698 0 -1 0 
4.66666651 -0.200000003 -8.66666698 -0 -0.99999994 -0 
-4.66666698 -0.200000003 -8.66666698 -0 -1 -0 
-10 -0.200000003 -8.66666698 -0 -1 -0 
10 -0.200000003 -7.33333302 0 -1 0 
-10 -0.200000003 -7.33333302 -0 -1 -0 
10 -0.200000003 -6 0 -1 0 
-10 -0.200000003 -6 -0 -1 -0 
10 -0.200000003 -4.66666651 0 -1 0 
-10 -0.200000003 -4.66666651 -0 -1 -0 
10 -0.200000003 -3.33333278 0 -1 0 
-10 -0.200000003 -3.33333278 -0 -1 -0 
10 -0.200000003 -1.99999976 0 -1 0 
-10 -0.200000003 -1.99999976 -0 -1 -0 
10 -0.200000003 -0.666665852 0 -1 0 
10 -0.200000003 -0.666665852 1 0 0 
-10 -0.200000003 -0.666665852 -0 -1 -0 
-10 -0.200000003 -0.666665852 -0.99999994 0 0 
10 -0.200000003 0.666667163 0 -1 0 
10 -0.200000003 0.666667163 1 0 0 
-10 -0.200000003 0.666667163 -0 -1 -0 
-10 -0.200000003 0.666667163 -0.99999994 0 0 
10 -0.200000003 2.00000024 0 -1 0 
-10 -0.200000003 2.00000024 -0 -1 -0 
10 -0.200000003 3.33333421 0 -1 0 
-10 -0.200000003 3.33333421 -0 -1 -0 
10 -0.200000003 4.66666698 0 -1 0 
-10 -0.200000003 4.66666698 -0 -1 -0 
10 -0.200000003 6 0 -1 0 
-10 -0.200000003 6 -0 -1 -0 
10 -0.200000003 7.33333397 0 -1 0 
-10 -0.200000003 7.33333397 -0 -1 -0 
10 -0.200000003 8.66666794 0 -1 0 
-10 -0.200000003 8.66666794 -0 -1 -0 
3 512 16 532 
3 514 532 533 
3 515 533 534 
3 516 534 535 
3 517 535 537 
3 518 537 538 
3 519 538 539 
3 520 539 540 
3 521 540 541 
3 522 541 542 
3 523 542 543 
3 524 543 545 
3 525 545 546 
3 526 546 547 
3 527 547 548 
3 550 48 572 
3 552 572 573 
3 553 573 574 
3 554 574 575 
3 555 575 576 
3 557 576 577 
3 558 577 578 
3 559 578 579 
3 560 579 580 
3 561 580 581 
3 562 581 582 
3 563 582 583 
3 565 583 584 
3 566 584 585 
3 567 585 586 
3 570 588 65 
3 49 65 66 
3 50 66 67 
3 51 67 68 
3 52 68 69 
3 53 69 70 
3 54 70 71 
3 55 71 72 
3 56 72 73 
3 57 73 74 
3 58 74 75 
3 59 75 76 
3 60 76 77 
3 61 77 78 
3 62 78 589 
3 588 590 81 
3 65 81 82 
3 66 82 83 
3 67 83 84 
3 68 84 85 
3 69 85 86 
3 70 86 87 
3 71 87 88 
3 72 88 89 
3 73 89 90 
3 74 90 91 
3 75 91 92 
3 76 92 93 
3 77 93 94 
3 78 94 591 
3 590 592 97 
3 81 97 98 
3 82 98 99 
3 83 99 100 
3 84 100 101 
3 85 101 102 
3 86 102 103 
3 87 103 104 
3 88 104 105 
3 89 105 106 
3 90 106 107 
3 91 107 108 
3 92 108 109 
3 93 109 110 
3 94 110 593 
3 592 594 113 
3 97 113 114 
3 98 114 115 
3 99 115 116 
3 100 116 117 
3 101 117 118 
3 102 118 119 
3 103 119 120 
3 104 120 121 
3 105 121 122 
3 106 122 123 
3 107 123 124 
3 108 124 125 
3 109 125 126 
3 110 126 595 
3 594 596 129 
3 113 129 130 
3 114 130 131 
3 115 131 132 
3 116 132 133 
3 117 133 134 
3 118 134 135 
3 119 135 136 
3 120 136 137 
3 121 137 138 
3 122 138 139 
3 123 139 140 
3 124 140 141 
3 125 141 142 
3 126 142 597 
3 596 598 145 
3 129 145 146 
3 130 146 147 
3 131 147 148 
3 132 148 149 
3 133 149 150 
3 134 150 151 
3 135 151 152 
3 136 152 153 
3 137 153 154 
3 138 154 155 
3 139 155 156 
3 140 156 157 
3 141 157 158 
3 142 158 599 
3 598 600 161 
3 145 161 162 
3 146 162 163 
3 147 163 164 
3 148 164 165 
3 149 165 166 
3 150 166 167 
3 151 167 168 
3 152 168 169 
3 153 169 170 
3 154 170 171 
3 155 171 172 
3 156 172 173 
3 157 173 174 
3 158 174 602 
3 600 604 177 
3 161 177 178 
3 162 178 179 
3 163 179 180 
3 164 180 181 
3 165 181 182 
3 166 182 183 
3 167 183 184 
3 168 184 185 
3 169 185 186 
3 170 186 187 
3 171 187 188 
3 172 188 189 
3 173 189 190 
3 174 190 606 
3 604 608 193 
3 177 193 194 
3 178 194 195 
3 179 195 196 
3 180 196 197 
3 181 197 198 
3 182 198 199 
3 183 199 200 
3 184 200 201 
3 185 201 202 
3 186 202 203 
3 187 203 204 
3 188 204 205 
3 189 205 206 
3 190 206 609 
3 608 610 209 
3 193 209 210 
3 194 210 211 
3 195 211 212 
3 196 212 213 
3 197 213 214 
3 198 214 215 
3 199 215 216 
3 200 216 217 
3 201 217 218 
3 202 218 219 
3 203 219 220 
3 204 220 221 
3 205 221 222 
3 206 222 611 
3 610 612 225 
3 209 225 226 
3 210 226 227 
3 211 227 228 
3 212 228 229 
3 213 229 230 
3 214 230 231 
3 215 231 232 
3 216 232 233 
3 217 233 234 
3 218 234 235 
3 219 235 236 
3 220 236 237 
3 221 237 238 
3 222 238 613 
3 612 614 241 
3 225 241 242 
3 226 242 243 
3 227 243 244 
3 228 244 245 
3 229 245 246 
3 230 246 247 
3 231 247 248 
3 232 248 249 
3 233 249 250 
3 234 250 251 
3 235 251 252 
3 236 252 253 
3 237 253 254 
3 238 254 615 
3 614 616 257 
3 241 257 258 
3 242 258 259 
3 243 259 260 
3 244 260 261 
3 245 261 262 
3 246 262 263 
3 247 263 264 
3 248 264 265 
3 249 265 266 
3 250 266 267 
3 251 267 268 
3 252 268 269 
3 253 269 270 
3 254 270 617 
3 616 618 273 
3 257 273 274 
3 258 274 275 
3 259 275 619 
3 260 619 277 
3 261 277 278 
3 262 278 279 
3 263 279 280 
3 264 280 281 
3 265 281 282 
3 266 282 620 
3 267 620 284 
3 268 284 285 
3 269 285 286 
3 270 286 621 
3 618 31 30 
3 273 30 29 
3 274 29 28 
3 275 28 544 
3 619 27 26 
3 277 26 25 
3 278 25 24 
3 279 24 23 
3 280 23 22 
3 281 22 21 
3 282 21 536 
3 283 20 19 
3 284 19 18 
3 285 18 17 
3 286 17 530 
3 569 622 289 
3 46 289 290 
3 45 290 291 
3 44 291 623 
3 43 292 293 
3 42 293 294 
3 41 294 295 
3 40 295 296 
3 39 296 297 
3 38 297 298 
3 37 298 624 
3 36 299 300 
3 35 300 301 
3 34 301 302 
3 33 302 625 
3 622 626 305 
3 289 305 306 
3 290 306 307 
3 291 307 308 
3 292 308 309 
3 293 309 310 
3 294 310 311 
3 295 311 312 
3 296 312 313 
3 297 313 314 
3 298 314 315 
3 624 315 316 
3 300 316 317 
3 301 317 318 
3 302 318 627 
3 626 628 321 
3 305 321 322 
3 306 322 323 
3 307 323 324 
3 308 324 325 
3 309 325 326 
3 310 326 327 
3 311 327 328 
3 312 328 329 
3 313 329 330 
3 314 330 331 
3 315 331 332 
3 316 332 333 
3 317 333 334 
3 318 334 629 
3 628 630 337 
3 321 337 338 
3 322 338 339 
3 323 339 340 
3 324 340 341 
3 325 341 342 
3 326 342 343 
3 327 343 344 
3 328 344 345 
3 329 345 346 
3 330 346 347 
3 331 347 348 
3 332 348 349 
3 333 349 350 
3 334 350 631 
3 630 632 353 
3 337 353 354 
3 338 354 355 
3 339 355 356 
3 340 356 357 
3 341 357 358 
3 342 358 359 
3 343 359 360 
3 344 360 361 
3 345 361 362 
3 346 362 363 
3 347 363 364 
3 348 364 365 
3 349 365 366 
3 350 366 633 
3 632 634 369 
3 353 369 370 
3 354 370 371 
3 355 371 372 
3 356 372 373 
3 357 373 374 
3 358 374 375 
3 359 375 376 
3 360 376 377 
3 361 377 378 
3 362 378 379 
3 363 379 380 
3 364 380 381 
3 365 381 382 
3 366 382 635 
3 634 636 385 
3 369 385 386 
3 370 386 387 
3 371 387 388 
3 372 388 389 
3 373 389 390 
3 374 390 391 
3 375 391 392 
3 376 392 393 
3 377 393 394 
3 378 394 395 
3 379 395 396 
3 380 396 397 
3 381 397 398 
3 382 398 638 
3 636 640 401 
3 385 401 402 
3 386 402 403 
3 387 403 404 
3 388 404 405 
3 389 405 406 
3 390 406 407 
3 391 407 408 
3 392 408 409 
3 393 409 410 
3 394 410 411 
3 395 411 412 
3 396 412 413 
3 397 413 414 
3 398 414 642 
3 640 644 417 
3 401 417 418 
3 402 418 419 
3 403 419 420 
3 404 420 421 
3 405 421 422 
3 406 422 423 
3 407 423 424 
3 408 424 425 
3 409 425 426 
3 410 426 427 
3 411 427 428 
3 412 428 429 
3 413 429 430 
3 414 430 645 
3 644 646 433 
3 417 433 434 
3 418 434 435 
3 419 435 436 
3 420 436 437 
3 421 437 438 
3 422 438 439 
3 423 439 440 
3 424 440 441 
3 425 441 442 
3 426 442 443 
3 427 443 444 
3 428 444 445 
3 429 445 446 
3 430 446 647 
3 646 648 449 
3 433 449 450 
3 434 450 451 
3 435 451 452 
3 436 452 453 
3 437 453 454 
3 438 454 455 
3 439 455 456 
3 440 456 457 
3 441 457 458 
3 442 458 459 
3 443 459 460 
3 444 460 461 
3 445 461 462 
3 446 462 649 
3 648 650 465 
3 449 465 466 
3 450 466 467 
3 451 467 468 
3 452 468 469 
3 453 469 470 
3 454 470 471 
3 455 471 472 
3 456 472 473 
3 457 473 474 
3 458 474 475 
3 459 475 476 
3 460 476 477 
3 461 477 478 
3 462 478 651 
3 650 652 481 
3 465 481 482 
3 466 482 483 
3 467 483 484 
3 468 484 485 
3 469 485 486 
3 470 486 487 
3 471 487 488 
3 472 488 489 
3 473 489 490 
3 474 490 491 
3 475 491 492 
3 476 492 493 
3 477 493 494 
3 478 494 653 
3 652 654 497 
3 481 497 498 
3 482 498 499 
3 483 499 500 
3 484 500 501 
3 485 501 502 
3 486 502 503 
3 487 503 504 
3 488 504 505 
3 489 505 506 
3 490 506 507 
3 491 507 508 
3 492 508 509 
3 493 509 510 
3 494 510 655 
3 654 0 1 
3 497 1 2 
3 498 2 3 
3 499 3 4 
3 500 4 5 
3 501 5 6 
3 502 6 7 
3 503 7 8 
3 504 8 9 
3 505 9 10 
3 506 10 11 
3 507 11 12 
3 508 12 13 
3 509 13 14 
3 510 14 529 
3 47 63 79 
3 288 79 95 
3 304 95 111 
3 320 111 127 
3 336 127 143 
3 352 143 159 
3 368 159 603 
3 384 175 607 
3 400 191 207 
3 416 207 223 
3 432 223 239 
3 448 239 255 
3 464 255 271 
3 480 271 287 
3 496 287 531 
3 15 549 272 
3 511 272 256 
3 495 256 240 
3 479 240 224 
3 463 224 208 
3 447 208 192 
3 431 192 605 
3 415 176 601 
3 399 160 144 
3 383 144 128 
3 367 128 112 
3 351 112 96 
3 335 96 80 
3 319 80 64 
3 303 64 571 
3 571 32 303 
3 64 303 319 
3 80 319 335 
3 96 335 351 
3 112 351 367 
3 128 367 383 
3 144 383 399 
3 601 639 415 
3 605 643 431 
3 192 431 447 
3 208 447 463 
3 224 463 479 
3 240 479 495 
3 256 495 511 
3 272 511 15 
3 531 513 496 
3 287 496 480 
3 271 480 464 
3 255 464 448 
3 239 448 432 
3 223 432 416 
3 207 416 400 
3 607 641 384 
3 603 637 368 
3 159 368 352 
3 143 352 336 
3 127 336 320 
3 111 320 304 
3 95 304 288 
3 79 288 47 
3 529 655 510 
3 14 510 509 
3 13 509 508 
3 12 508 507 
3 11 507 506 
3 10 506 505 
3 9 505 504 
3 8 504 503 
3 7 503 502 
3 6 502 501 
3 5 501 500 
3 4 500 499 
3 3 499 498 
3 2 498 497 
3 1 497 654 
3 655 653 494 
3 510 494 493 
3 509 493 492 
3 508 492 491 
3 507 491 490 
3 506 490 489 
3 505 489 488 
3 504 488 487 
3 503 487 486 
3 502 486 485 
3 501 485 484 
3 500 484 483 
3 499 483 482 
3 498 482 481 
3 497 481 652 
3 653 651 478 
3 494 478 477 
3 493 477 476 
3 492 476 475 
3 491 475 474 
3 490 474 473 
3 489 473 472 
3 488 472 471 
3 487 471 470 
3 486 470 469 
3 485 469 468 
3 484 468 467 
3 483 467 466 
3 482 466 465 
3 481 465 650 
3 651 649 462 
3 478 462 461 
3 477 461 460 
3 476 460 459 
3 475 459 458 
3 474 458 457 
3 473 457 456 
3 472 456 455 
3 471 455 454 
3 470 454 453 
3 469 453 452 
3 468 452 451 
3 467 451 450 
3 466 450 449 
3 465 449 648 
3 649 647 446 
3 462 446 445 
3 461 445 444 
3 460 444 443 
3 459 443 442 
3 458 442 441 
3 457 441 440 
3 456 440 439 
3 455 439 438 
3 454 438 437 
3 453 437 436 
3 452 436 435 
3 451 435 434 
3 450 434 433 
3 449 433 646 
3 647 645 430 
3 446 430 429 
3 445 429 428 
3 444 428 427 
3 443 427 426 
3 442 426 425 
3 441 425 424 
3 440 424 423 
3 439 423 422 
3 438 422 421 
3 437 421 420 
3 436 420 419 
3 435 419 418 
3 434 418 417 
3 433 417 644 
3 645 642 414 
3 430 414 413 
3 429 413 412 
3 428 412 411 
3 427 411 410 
3 426 410 409 
3 425 409 408 
3 424 408 407 
3 423 407 406 
3 422 406 405 
3 421 405 404 
3 420 404 403 
3 419 403 402 
3 418 402 401 
3 417 401 640 
3 642 638 398 
3 414 398 397 
3 413 397 396 
3 412 396 395 
3 411 395 394 
3 410 394 393 
3 409 393 392 
3 408 392 391 
3 407 391 390 
3 406 390 389 
3 405 389 388 
3 404 388 387 
3 403 387 386 
3 402 386 385 
3 401 385 636 
3 638 635 382 
3 398 382 381 
3 397 381 380 
3 396 380 379 
3 395 379 378 
3 394 378 377 
3 393 377 376 
3 392 376 375 
3 391 375 374 
3 390 374 373 
3 389 373 372 
3 388 372 371 
3 387 371 370 
3 386 370 369 
3 385 369 634 
3 635 633 366 
3 382 366 365 
3 381 365 364 
3 380 364 363 
3 379 363 362 
3 378 362 361 
3 377 361 360 
3 376 360 359 
3 375 359 358 
3 374 358 357 
3 373 357 356 
3 372 356 355 
3 371 355 354 
3 370 354 353 
3 369 353 632 
3 633 631 350 
3 366 350 349 
3 365 349 348 
3 364 348 347 
3 363 347 346 
3 362 346 345 
3 361 345 344 
3 360 344 343 
3 359 343 342 
3 358 342 341 
3 357 341 340 
3 356 340 339 
3 355 339 338 
3 354 338 337 
3 353 337 630 
3 631 629 334 
3 350 334 333 
3 349 333 332 
3 348 332 331 
3 347 331 330 
3 346 330 329 
3 345 329 328 
3 344 328 327 
3 343 327 326 
3 342 326 325 
3 341 325 324 
3 340 324 323 
3 339 323 322 
3 338 322 321 
3 337 321 628 
3 629 627 318 
3 334 318 317 
3 333 317 316 
3 332 316 315 
3 331 315 314 
3 330 314 313 
3 329 313 312 
3 328 312 311 
3 327 311 310 
3 326 310 309 
3 325 309 308 
3 324 308 307 
3 323 307 306 
3 322 306 305 
3 321 305 626 
3 627 625 302 
3 318 302 301 
3 317 301 300 
3 316 300 624 
3 315 624 298 
3 314 298 297 
3 313 297 296 
3 312 296 295 
3 311 295 294 
3 310 294 293 
3 309 293 292 
3 308 292 291 
3 307 291 290 
3 306 290 289 
3 305 289 622 
3 625 551 33 
3 302 33 34 
3 301 34 35 
3 300 35 36 
3 624 556 37 
3 298 37 38 
3 297 38 39 
3 296 39 40 
3 295 40 41 
3 294 41 42 
3 293 42 43 
3 623 564 44 
3 291 44 45 
3 290 45 46 
3 289 46 569 
3 530 621 286 
3 17 286 285 
3 18 285 284 
3 19 284 283 
3 536 620 282 
3 21 282 281 
3 22 281 280 
3 23 280 279 
3 24 279 278 
3 25 278 277 
3 26 277 619 
3 544 276 275 
3 28 275 274 
3 29 274 273 
3 30 273 618 
3 621 617 270 
3 286 270 269 
3 285 269 268 
3 284 268 267 
3 620 267 266 
3 282 266 265 
3 281 265 264 
3 280 264 263 
3 279 263 262 
3 278 262 261 
3 277 261 260 
3 619 260 259 
3 275 259 258 
3 274 258 257 
3 273 257 616 
3 617 615 254 
3 270 254 253 
3 269 253 252 
3 268 252 251 
3 267 251 250 
3 266 250 249 
3 265 249 248 
3 264 248 247 
3 263 247 246 
3 262 246 245 
3 261 245 244 
3 260 244 243 
3 259 243 242 
3 258 242 241 
3 257 241 614 
3 615 613 238 
3 254 238 237 
3 253 237 236 
3 252 236 235 
3 251 235 234 
3 250 234 233 
3 249 233 232 
3 248 232 231 
3 247 231 230 
3 246 230 229 
3 245 229 228 
3 244 228 227 
3 243 227 226 
3 242 226 225 
3 241 225 612 
3 613 611 222 
3 238 222 221 
3 237 221 220 
3 236 220 219 
3 235 219 218 
3 234 218 217 
3 233 217 216 
3 232 216 215 
3 231 215 214 
3 230 214 213 
3 229 213 212 
3 228 212 211 
3 227 211 210 
3 226 210 209 
3 225 209 610 
3 611 609 206 
3 222 206 205 
3 221 205 204 
3 220 204 203 
3 219 203 202 
3 218 202 201 
3 217 201 200 
3 216 200 199 
3 215 199 198 
3 214 198 197 
3 213 197 196 
3 212 196 195 
3 211 195 194 
3 210 194 193 
3 209 193 608 
3 609 606 190 
3 206 190 189 
3 205 189 188 
3 204 188 187 
3 203 187 186 
3 202 186 185 
3 201 185 184 
3 200 184 183 
3 199 183 182 
3 198 182 181 
3 197 181 180 
3 196 180 179 
3 195 179 178 
3 194 178 177 
3 193 177 604 
3 606 602 174 
3 190 174 173 
3 189 173 172 
3 188 172 171 
3 187 171 170 
3 186 170 169 
3 185 169 168 
3 184 168 167 
3 183 167 166 
3 182 166 165 
3 181 165 164 
3 180 164 163 
3 179 163 162 
3 178 162 161 
3 177 161 600 
3 602 599 158 
3 174 158 157 
3 173 157 156 
3 172 156 155 
3 171 155 154 
3 170 154 153 
3 169 153 152 
3 168 152 151 
3 167 151 150 
3 166 150 149 
3 165 149 148 
3 164 148 147 
3 163 147 146 
3 162 146 145 
3 161 145 598 
3 599 597 142 
3 158 142 141 
3 157 141 140 
3 156 140 139 
3 155 139 138 
3 154 138 137 
3 153 137 136 
3 152 136 135 
3 151 135 134 
3 150 134 133 
3 149 133 132 
3 148 132 131 
3 147 131 130 
3 146 130 129 
3 145 129 596 
3 597 595 126 
3 142 126 125 
3 141 125 124 
3 140 124 123 
3 139 123 122 
3 138 122 121 
3 137 121 120 
3 136 120 119 
3 135 119 118 
3 134 118 117 
3 133 117 116 
3 132 116 115 
3 131 115 114 
3 130 114 113 
3 129 113 594 
3 595 593 110 
3 126 110 109 
3 125 109 108 
3 124 108 107 
3 123 107 106 
3 122 106 105 
3 121 105 104 
3 120 104 103 
3 119 103 102 
3 118 102 101 
3 117 101 100 
3 116 100 99 
3 115 99 98 
3 114 98 97 
3 113 97 592 
3 593 591 94 
3 110 94 93 
3 109 93 92 
3 108 92 91 
3 107 91 90 
3 106 90 89 
3 105 89 88 
3 104 88 87 
3 103 87 86 
3 102 86 85 
3 101 85 84 
3 100 84 83 
3 99 83 82 
3 98 82 81 
3 97 81 590 
3 591 589 78 
3 94 78 77 
3 93 77 76 
3 92 76 75 
3 91 75 74 
3 90 74 73 
3 89 73 72 
3 88 72 71 
3 87 71 70 
3 86 70 69 
3 85 69 68 
3 84 68 67 
3 83 67 66 
3 82 66 65 
3 81 65 588 
3 589 587 62 
3 78 62 61 
3 77 61 60 
3 76 60 59 
3 75 59 58 
3 74 58 57 
3 73 57 56 
3 72 56 55 
3 71 55 54 
3 70 54 53 
3 69 53 52 
3 68 52 51 
3 67 51 50 
3 66 50 49 
3 65 49 570 
3 586 568 567 
3 585 567 566 
3 584 566 565 
3 583 565 563 
3 582 563 562 
3 581 562 561 
3 580 561 560 
3 579 560 559 
3 578 559 558 
3 577 558 557 
3 576 557 555 
3 575 555 554 
3 574 554 553 
3 573 553 552 
3 572 552 550 
3 548 528 527 
3 547 527 526 
3 546 526 525 
3 545 525 524 
3 543 524 523 
3 542 523 522 
3 541 522 521 
3 540 521 520 
3 539 520 519 
3 538 519 518 
3 537 518 517 
3 535 517 516 
3 534 516 515 
3 533 515 514 
3 532 514 512 
