{
	"asset":{
		"version":"2.0",
		"generator":"Houdini GLTF 2.0 Exporter"
	},
	"accessors":[
		{
			"bufferView":0,
			"componentType":5121,
			"count":12,
			"type":"SCALAR",
			"min":[0
			],
			"max":[7
			]
		},
		{
			"bufferView":1,
			"componentType":5126,
			"count":8,
			"type":"VEC3",
			"min":[-0.5,-0.5,-0.5
			],
			"max":[0.5,0.5,0.5
			]
		},
		{
			"bufferView":2,
			"componentType":5126,
			"count":8,
			"type":"VEC3",
			"min":[0,0,0
			],
			"max":[1,0,1
			]
		},
		{
			"bufferView":3,
			"componentType":5121,
			"count":24,
			"type":"SCALAR",
			"min":[0
			],
			"max":[15
			]
		},
		{
			"bufferView":4,
			"componentType":5126,
			"count":16,
			"type":"VEC3",
			"min":[-0.5,-0.5,-0.5
			],
			"max":[0.5,0.5,0.5
			]
		},
		{
			"bufferView":5,
			"componentType":5126,
			"count":16,
			"type":"VEC3",
			"min":[-1,-1,-1
			],
			"max":[0,1,0
			]
		},
		{
			"bufferView":6,
			"componentType":5121,
			"count":36,
			"type":"SCALAR",
			"min":[0
			],
			"max":[23
			]
		},
		{
			"bufferView":7,
			"componentType":5126,
			"count":24,
			"type":"VEC3",
			"min":[-5,-0.100000001,-5
			],
			"max":[5,0.100000001,5
			]
		},
		{
			"bufferView":8,
			"componentType":5126,
			"count":24,
			"type":"VEC3",
			"min":[-1,-1,-1
			],
			"max":[1,1,1
			]
		},
		{
			"bufferView":9,
			"componentType":5125,
			"count":77124,
			"type":"SCALAR",
			"min":[0
			],
			"max":[77123
			]
		},
		{
			"bufferView":10,
			"componentType":5126,
			"count":77124,
			"type":"VEC3",
			"min":[-1.01214898,-0.26760602,-0.972831011
			],
			"max":[1.01214898,1.38463593,0.847423017
			]
		},
		{
			"bufferView":11,
			"componentType":5126,
			"count":77124,
			"type":"VEC3",
			"min":[-0.999779284,-0.999999344,-0.999821544
			],
			"max":[0.999778748,0.999997258,0.999903202
			]
		},
		{
			"bufferView":12,
			"componentType":5126,
			"count":77124,
			"type":"VEC2",
			"min":[0.00999999978,0.00999999046
			],
			"max":[0.99000001,0.979417026
			]
		}
	],
	"buffers":[
		{
			"uri":"Scene2_data.bin",
			"byteLength":2777688,
			"name":"main_buffer"
		}
	],
	"bufferViews":[
		{
			"buffer":0,
			"byteLength":12,
			"target":34963
		},
		{
			"buffer":0,
			"byteOffset":12,
			"byteLength":96,
			"target":34962
		},
		{
			"buffer":0,
			"byteOffset":108,
			"byteLength":96,
			"target":34962
		},
		{
			"buffer":0,
			"byteOffset":204,
			"byteLength":24,
			"target":34963
		},
		{
			"buffer":0,
			"byteOffset":228,
			"byteLength":192,
			"target":34962
		},
		{
			"buffer":0,
			"byteOffset":420,
			"byteLength":192,
			"target":34962
		},
		{
			"buffer":0,
			"byteOffset":612,
			"byteLength":36,
			"target":34963
		},
		{
			"buffer":0,
			"byteOffset":648,
			"byteLength":288,
			"target":34962
		},
		{
			"buffer":0,
			"byteOffset":936,
			"byteLength":288,
			"target":34962
		},
		{
			"buffer":0,
			"byteOffset":1224,
			"byteLength":308496,
			"target":34963
		},
		{
			"buffer":0,
			"byteOffset":309720,
			"byteLength":925488,
			"target":34962
		},
		{
			"buffer":0,
			"byteOffset":1235208,
			"byteLength":925488,
			"target":34962
		},
		{
			"buffer":0,
			"byteOffset":2160696,
			"byteLength":616992,
			"target":34962
		}
	],
	"nodes":[
		{
			"children":[1,2,3
			],
			"name":"Root"
		},
		{
			"matrix":[1,0,0,0,0,1,0,0,0,0,1,0,0,0.829684198,0,1
			],
			"name":"box1",
			"mesh":0
		},
		{
			"name":"box2",
			"mesh":1
		},
		{
			"matrix":[1,0,0,0,0,1,0,0,0,0,1,0,0,0.820286036,-1.73031187,1
			],
			"name":"testgeometry_rubbertoy1",
			"mesh":2
		}
	],
	"meshes":[
		{
			"primitives":[
				{
					"attributes":{
						"NORMAL":2,
						"POSITION":1
					},
					"indices":0,
					"material":0
				},
				{
					"attributes":{
						"NORMAL":5,
						"POSITION":4
					},
					"indices":3,
					"material":1
				}
			]
		},
		{
			"primitives":[
				{
					"attributes":{
						"NORMAL":8,
						"POSITION":7
					},
					"indices":6,
					"material":2
				}
			]
		},
		{
			"primitives":[
				{
					"attributes":{
						"TEXCOORD_0":12,
						"NORMAL":11,
						"POSITION":10
					},
					"indices":9,
					"material":3
				}
			]
		}
	],
	"materials":[
		{
			"name":"green",
			"pbrMetallicRoughness":{
				"baseColorFactor":[0,0.5,0,1
				],
				"metallicFactor":0,
				"roughnessFactor":0.0500000007
			}
		},
		{
			"name":"yellow",
			"pbrMetallicRoughness":{
				"baseColorFactor":[0.899999976,0.899999976,0,1
				],
				"metallicFactor":0,
				"roughnessFactor":0.100000001
			}
		},
		{
			"name":"red",
			"pbrMetallicRoughness":{
				"baseColorFactor":[0.5,0,0,1
				],
				"metallicFactor":0,
				"roughnessFactor":0.150000006
			}
		},
		{
			"name":"blue",
			"pbrMetallicRoughness":{
				"baseColorFactor":[0,0.25,0.5,1
				],
				"metallicFactor":0,
				"roughnessFactor":0.100000001
			}
		}
	],
	"scenes":[
		{
			"nodes":[0
			]
		}
	],
	"scene":0
}
